<svg id="Layer_2" data-name="Layer 2" xmlns="http://www.w3.org/2000/svg" viewBox="0 0 110.04 78.17"><defs><style>.cls-1{fill:none;stroke:#fff;stroke-miterlimit:10;stroke-width:3px;}</style></defs><title>playbutton-icon</title><path class="cls-1" d="M58,3.35c3.36,0,6.73-.05,10.09,0,5.55.1,11.09.23,16.63.44,3.93.15,7.86.4,11.79.68A14.16,14.16,0,0,1,106,8.78a16.29,16.29,0,0,1,3.49,6.86,40.92,40.92,0,0,1,1.3,8.08c.68,7,.63,14,.63,20.95a147.11,147.11,0,0,1-1.08,17.6,24.23,24.23,0,0,1-2.17,7.5A12.5,12.5,0,0,1,98.27,77c-3.29.5-6.64.62-10,.79q-6.36.32-12.74.44c-6.82.13-13.64.24-20.46.23-6.1,0-12.2-.15-18.3-.31-4.41-.12-8.83-.27-13.24-.57a45.64,45.64,0,0,1-7.47-1.07c-5-1.19-8-4.52-9.5-9.38A45.75,45.75,0,0,1,5,58c-.65-6.87-.62-13.77-.62-20.66A146.14,146.14,0,0,1,5.49,19.5a22.71,22.71,0,0,1,2.58-8.27,12.48,12.48,0,0,1,9.32-6.44,67.6,67.6,0,0,1,8.31-.73q10.54-.41,21.09-.62c3.72-.08,7.44,0,11.17,0Z" transform="translate(-2.9 -1.83)"/><path class="cls-1" d="M46.43,56V25.89L75.37,41Z" transform="translate(-2.9 -1.83)"/></svg>