<svg id="_1" data-name="1" xmlns="http://www.w3.org/2000/svg" viewBox="0 0 468.75 125.72"><defs><style>.cls-1,.cls-3{fill:#fff;}.cls-1,.cls-2{fill-rule:evenodd;}.cls-2{fill:#1b1b1b;}</style></defs><title>suhba-logo-n</title><path class="cls-1" d="M166.29,122.43H471.57a3,3,0,1,1,0,5.92H166.4a10.48,10.48,0,0,0-.11-5.92Z" transform="translate(-6.08 -10.39)"/><path class="cls-1" d="M9.24,122.43H134a9.91,9.91,0,0,0-.12,5.92H9.24a3,3,0,1,1,0-5.92Z" transform="translate(-6.08 -10.39)"/><path class="cls-1" d="M187.31,94.63V84.1c0-15.89-5.75-31.59-26.62-31.59H127V73.57c0,21.06,0,21.06-20.29,21.06V84.1c0-19.16-7.77-31.59-27.75-31.59H38.44c-13.59,0-32,6-32,31.59,0,12.3,7.15,31.59,32,31.59h23c4.63-2.77,13.13-8.63,13.46-20.49H39.07c-1.6,0,0,0-2.79-.19A10.53,10.53,0,0,1,34,74.19a19.62,19.62,0,0,1,4.41-.62H70.09c2.81,0,13.54,0,13.54,10.53v31.59h23c21.14,0,40.11,0,40.32-31.59l-.2-10.53c12.11,0,19.65,0,19.65,10.53v31.59h82.49c7.57,0,35.27,0,35.27-31.59s-28-31.59-35.27-31.59H223.82c-5.58,0-13.39,0-13.39-10.53s8.21-10.53,13.39-10.53h48.4c7.59,0,15.07,2.52,15.07,12.1,0,9,6.33,30,30.88,30,29.34,0,33.31-21.91,33.31-31.59V31.46c11.07,0,18.62,0,18.62,16.41v25.7h66.71c6,0,36.13.86,36.13-30.73S440,10.39,436.82,10.39H391.62c.33,11.86,8.83,18.29,13.46,21.06h31.74c2.83,0,15.37,0,15.37,10.53s-12.6,10.53-15.37,10.53H389.14V42c0-21.78-10.65-31.59-34.91-31.59H330.55V42s-1.62,10.53-12.38,10.53S307.41,42,307.41,42c0-12.89-7.19-31.59-35.19-31.59h-48.4c-9.34,0-33.41,0-33.41,31.59s23.06,31.59,33.41,31.59h25.12c4.8,0,15.18,0,15.18,10.53S255,94.63,248.93,94.63Z" transform="translate(-6.08 -10.39)"/><path class="cls-2" d="M375.89,106.09v9.72c-5.93-.14-10.53-3.55-10.53-5.7V93.48h0v-.54a11.44,11.44,0,0,0-.16-2,7.72,7.72,0,0,0-.59-1.85,3.16,3.16,0,0,0-1.43-1.48,5.3,5.3,0,0,0-2.49-.52,10,10,0,0,0-4.5.94,6.67,6.67,0,0,0-2.82,2.51A11.65,11.65,0,0,0,352,93.79a15,15,0,0,0-.42,3.66v8.11a3.32,3.32,0,0,1,0,.53v4c0,2.15-4.6,5.56-10.53,5.7V69.71c0-2.16,4.6-7.77,10.53-7.9,0,6.91,0,13.48,0,20.39,3.14-2.58,6.81-3.15,11-3.15s7.62,1,9.91,3,3.43,5,3.43,9v14.54A3.13,3.13,0,0,1,375.89,106.09Z" transform="translate(-6.08 -10.39)"/><path class="cls-2" d="M327.81,78.88c-5.93.14-10.53,3.67-10.53,5.91h0v2.78a4.09,4.09,0,0,0,0,.55V98.23a13.56,13.56,0,0,1-.45,3.56,9.14,9.14,0,0,1-1.41,3,6.28,6.28,0,0,1-2.71,2.1,10.19,10.19,0,0,1-4.1.76,5.07,5.07,0,0,1-2.48-.54,3.25,3.25,0,0,1-1.44-1.53,8.61,8.61,0,0,1-.59-1.92,12.77,12.77,0,0,1-.16-2.1V92.74a3.51,3.51,0,0,0,0-.54v-7.4c0-2.23-4.6-5.76-10.53-5.91V103.5q0,6.25,3.43,9.32c2.29,2,5.59,3.08,9.91,3.08a15.13,15.13,0,0,0,11.14-4.42c1.34,2,5,4.16,9.52,4.4h.46v-37Z" transform="translate(-6.08 -10.39)"/><path class="cls-2" d="M229.08,31.46h-5.26c-5.19,0-13.39,0-13.39,10.53s7.82,10.53,13.39,10.53h25.12c7.3,0,35.26,0,35.26,31.59s-27.7,31.59-35.26,31.59H187.53c.33-11.86,8.83-18.28,13.46-21.06h48c6.1,0,15.17,0,15.17-10.53s-10.38-10.53-15.17-10.53H223.82c-10.35,0-33.41,0-33.41-31.59s24.07-31.59,33.41-31.59h50.47c-.33,11.86-8.83,18.3-13.46,21.06H229.08Z" transform="translate(-6.08 -10.39)"/><path class="cls-2" d="M389,61.82c3.31.08,9.79,3.71,10.42,7.48.09,8.28.11,4.2.11,12.48a10.85,10.85,0,0,1,4-1.79,20.22,20.22,0,0,1,5.25-.75q16.74,0,16.75,18.1a23.53,23.53,0,0,1-1.75,9.48,13.68,13.68,0,0,1-5.63,6.36,18.17,18.17,0,0,1-9.6,2.35,17.5,17.5,0,0,1-5.36-.85,13.08,13.08,0,0,1-4.35-2.25l-.43-.29c-2.27,2.41-5.65,3.46-9.16,3.66,0-23.59-.28-30.4-.28-54ZM399.74,99a13,13,0,0,0,.46,3.39,14.23,14.23,0,0,0,1.33,3.22,6.79,6.79,0,0,0,2.38,2.46,6.25,6.25,0,0,0,3.39.94q7.51,0,7.5-11.94t-7.5-11.84a6.39,6.39,0,0,0-3.59,1,6.65,6.65,0,0,0-2.37,2.65,14.35,14.35,0,0,0-1.22,3.41,17.14,17.14,0,0,0-.38,3.6Z" transform="translate(-6.08 -10.39)"/><path class="cls-2" d="M472.87,98.87c0-11.83-5.19-17-13.55-19.28A27.5,27.5,0,0,0,453,79q-16.74,0-16.75,18.2a23.79,23.79,0,0,0,1.75,9.53,13.73,13.73,0,0,0,5.63,6.39,18.1,18.1,0,0,0,9.6,2.37,17.41,17.41,0,0,0,5.36-.85,13,13,0,0,0,4.35-2.26,8.07,8.07,0,0,1,.87-.55,12.68,12.68,0,0,0,9,3.94V98.87Zm-10.77.31a11.44,11.44,0,0,1-.46,3.17,12.62,12.62,0,0,1-1.33,3,6.67,6.67,0,0,1-5.77,3.18q-7.52,0-7.51-11.17t7.51-11.07a6.7,6.7,0,0,1,3.59.94,6.37,6.37,0,0,1,2.37,2.48,12.94,12.94,0,0,1,1.22,3.18,15.12,15.12,0,0,1,.38,3.36Z" transform="translate(-6.08 -10.39)"/><circle class="cls-3" cx="144.21" cy="115.19" r="10.53"/></svg>